<?xml version="1.0" encoding="UTF-8" standalone="no"?>
<!DOCTYPE svg PUBLIC "-//W3C//DTD SVG 1.1//EN"
 "http://www.w3.org/Graphics/SVG/1.1/DTD/svg11.dtd">
<!-- Generated by graphviz version 6.0.2 (20221011.1828)
 -->
<!-- Title: Tree Pages: 1 -->
<svg width="1019pt" height="581pt"
 viewBox="0.00 0.00 1018.50 581.00" xmlns="http://www.w3.org/2000/svg" xmlns:xlink="http://www.w3.org/1999/xlink">
<g id="graph0" class="graph" transform="scale(1 1) rotate(0) translate(4 577)">
<title>Tree</title>
<polygon fill="white" stroke="none" points="-4,4 -4,-577 1014.5,-577 1014.5,4 -4,4"/>
<!-- 0 -->
<g id="node1" class="node">
<title>0</title>
<polygon fill="none" stroke="black" points="827,-573 697,-573 697,-505 827,-505 827,-573"/>
<text text-anchor="middle" x="762" y="-557.8" font-family="Helvetica,sans-Serif" font-size="14.00">不错 &lt;= 0.5</text>
<text text-anchor="middle" x="762" y="-542.8" font-family="Helvetica,sans-Serif" font-size="14.00">gini = 0.5</text>
<text text-anchor="middle" x="762" y="-527.8" font-family="Helvetica,sans-Serif" font-size="14.00">samples = 1571</text>
<text text-anchor="middle" x="762" y="-512.8" font-family="Helvetica,sans-Serif" font-size="14.00">value = [790, 781]</text>
</g>
<!-- 1 -->
<g id="node2" class="node">
<title>1</title>
<polygon fill="none" stroke="black" points="708,-469 578,-469 578,-401 708,-401 708,-469"/>
<text text-anchor="middle" x="643" y="-453.8" font-family="Helvetica,sans-Serif" font-size="14.00">很快 &lt;= 0.5</text>
<text text-anchor="middle" x="643" y="-438.8" font-family="Helvetica,sans-Serif" font-size="14.00">gini = 0.49</text>
<text text-anchor="middle" x="643" y="-423.8" font-family="Helvetica,sans-Serif" font-size="14.00">samples = 1352</text>
<text text-anchor="middle" x="643" y="-408.8" font-family="Helvetica,sans-Serif" font-size="14.00">value = [773, 579]</text>
</g>
<!-- 0&#45;&gt;1 -->
<g id="edge1" class="edge">
<title>0&#45;&gt;1</title>
<path fill="none" stroke="black" d="M723.36,-504.88C712.56,-495.62 700.7,-485.45 689.49,-475.85"/>
<polygon fill="black" stroke="black" points="691.72,-473.15 681.85,-469.3 687.16,-478.46 691.72,-473.15"/>
<text text-anchor="middle" x="683.77" y="-490.53" font-family="Helvetica,sans-Serif" font-size="14.00">True</text>
</g>
<!-- 18 -->
<g id="node19" class="node">
<title>18</title>
<polygon fill="none" stroke="black" points="895,-469 773,-469 773,-401 895,-401 895,-469"/>
<text text-anchor="middle" x="834" y="-453.8" font-family="Helvetica,sans-Serif" font-size="14.00">本来 &lt;= 0.5</text>
<text text-anchor="middle" x="834" y="-438.8" font-family="Helvetica,sans-Serif" font-size="14.00">gini = 0.143</text>
<text text-anchor="middle" x="834" y="-423.8" font-family="Helvetica,sans-Serif" font-size="14.00">samples = 219</text>
<text text-anchor="middle" x="834" y="-408.8" font-family="Helvetica,sans-Serif" font-size="14.00">value = [17, 202]</text>
</g>
<!-- 0&#45;&gt;18 -->
<g id="edge18" class="edge">
<title>0&#45;&gt;18</title>
<path fill="none" stroke="black" d="M785.38,-504.88C791.54,-496.15 798.26,-486.62 804.7,-477.51"/>
<polygon fill="black" stroke="black" points="807.59,-479.49 810.49,-469.3 801.87,-475.45 807.59,-479.49"/>
<text text-anchor="middle" x="814.74" y="-490.24" font-family="Helvetica,sans-Serif" font-size="14.00">False</text>
</g>
<!-- 2 -->
<g id="node3" class="node">
<title>2</title>
<polygon fill="none" stroke="black" points="525,-365 395,-365 395,-297 525,-297 525,-365"/>
<text text-anchor="middle" x="460" y="-349.8" font-family="Helvetica,sans-Serif" font-size="14.00">信赖 &lt;= 0.5</text>
<text text-anchor="middle" x="460" y="-334.8" font-family="Helvetica,sans-Serif" font-size="14.00">gini = 0.48</text>
<text text-anchor="middle" x="460" y="-319.8" font-family="Helvetica,sans-Serif" font-size="14.00">samples = 1280</text>
<text text-anchor="middle" x="460" y="-304.8" font-family="Helvetica,sans-Serif" font-size="14.00">value = [768, 512]</text>
</g>
<!-- 1&#45;&gt;2 -->
<g id="edge2" class="edge">
<title>1&#45;&gt;2</title>
<path fill="none" stroke="black" d="M583.59,-400.88C565.92,-391.04 546.42,-380.17 528.24,-370.03"/>
<polygon fill="black" stroke="black" points="529.87,-366.94 519.43,-365.12 526.46,-373.05 529.87,-366.94"/>
</g>
<!-- 11 -->
<g id="node12" class="node">
<title>11</title>
<polygon fill="none" stroke="black" points="695.5,-365 590.5,-365 590.5,-297 695.5,-297 695.5,-365"/>
<text text-anchor="middle" x="643" y="-349.8" font-family="Helvetica,sans-Serif" font-size="14.00">情况 &lt;= 0.5</text>
<text text-anchor="middle" x="643" y="-334.8" font-family="Helvetica,sans-Serif" font-size="14.00">gini = 0.129</text>
<text text-anchor="middle" x="643" y="-319.8" font-family="Helvetica,sans-Serif" font-size="14.00">samples = 72</text>
<text text-anchor="middle" x="643" y="-304.8" font-family="Helvetica,sans-Serif" font-size="14.00">value = [5, 67]</text>
</g>
<!-- 1&#45;&gt;11 -->
<g id="edge11" class="edge">
<title>1&#45;&gt;11</title>
<path fill="none" stroke="black" d="M643,-400.88C643,-392.78 643,-383.98 643,-375.47"/>
<polygon fill="black" stroke="black" points="646.5,-375.3 643,-365.3 639.5,-375.3 646.5,-375.3"/>
</g>
<!-- 3 -->
<g id="node4" class="node">
<title>3</title>
<polygon fill="none" stroke="black" points="389,-261 259,-261 259,-193 389,-193 389,-261"/>
<text text-anchor="middle" x="324" y="-245.8" font-family="Helvetica,sans-Serif" font-size="14.00">实惠 &lt;= 0.5</text>
<text text-anchor="middle" x="324" y="-230.8" font-family="Helvetica,sans-Serif" font-size="14.00">gini = 0.469</text>
<text text-anchor="middle" x="324" y="-215.8" font-family="Helvetica,sans-Serif" font-size="14.00">samples = 1229</text>
<text text-anchor="middle" x="324" y="-200.8" font-family="Helvetica,sans-Serif" font-size="14.00">value = [768, 461]</text>
</g>
<!-- 2&#45;&gt;3 -->
<g id="edge3" class="edge">
<title>2&#45;&gt;3</title>
<path fill="none" stroke="black" d="M415.84,-296.88C403.37,-287.53 389.68,-277.26 376.76,-267.57"/>
<polygon fill="black" stroke="black" points="378.5,-264.5 368.4,-261.3 374.3,-270.1 378.5,-264.5"/>
</g>
<!-- 10 -->
<g id="node11" class="node">
<title>10</title>
<polygon fill="none" stroke="black" points="512.5,-253.5 407.5,-253.5 407.5,-200.5 512.5,-200.5 512.5,-253.5"/>
<text text-anchor="middle" x="460" y="-238.3" font-family="Helvetica,sans-Serif" font-size="14.00">gini = 0.0</text>
<text text-anchor="middle" x="460" y="-223.3" font-family="Helvetica,sans-Serif" font-size="14.00">samples = 51</text>
<text text-anchor="middle" x="460" y="-208.3" font-family="Helvetica,sans-Serif" font-size="14.00">value = [0, 51]</text>
</g>
<!-- 2&#45;&gt;10 -->
<g id="edge10" class="edge">
<title>2&#45;&gt;10</title>
<path fill="none" stroke="black" d="M460,-296.88C460,-286.33 460,-274.6 460,-263.85"/>
<polygon fill="black" stroke="black" points="463.5,-263.52 460,-253.52 456.5,-263.52 463.5,-263.52"/>
</g>
<!-- 4 -->
<g id="node5" class="node">
<title>4</title>
<polygon fill="none" stroke="black" points="262,-157 132,-157 132,-89 262,-89 262,-157"/>
<text text-anchor="middle" x="197" y="-141.8" font-family="Helvetica,sans-Serif" font-size="14.00">放心 &lt;= 0.5</text>
<text text-anchor="middle" x="197" y="-126.8" font-family="Helvetica,sans-Serif" font-size="14.00">gini = 0.463</text>
<text text-anchor="middle" x="197" y="-111.8" font-family="Helvetica,sans-Serif" font-size="14.00">samples = 1207</text>
<text text-anchor="middle" x="197" y="-96.8" font-family="Helvetica,sans-Serif" font-size="14.00">value = [767, 440]</text>
</g>
<!-- 3&#45;&gt;4 -->
<g id="edge4" class="edge">
<title>3&#45;&gt;4</title>
<path fill="none" stroke="black" d="M282.77,-192.88C271.12,-183.53 258.33,-173.26 246.27,-163.57"/>
<polygon fill="black" stroke="black" points="248.45,-160.83 238.46,-157.3 244.07,-166.29 248.45,-160.83"/>
</g>
<!-- 7 -->
<g id="node8" class="node">
<title>7</title>
<polygon fill="none" stroke="black" points="385.5,-157 280.5,-157 280.5,-89 385.5,-89 385.5,-157"/>
<text text-anchor="middle" x="333" y="-141.8" font-family="Helvetica,sans-Serif" font-size="14.00">材料 &lt;= 0.5</text>
<text text-anchor="middle" x="333" y="-126.8" font-family="Helvetica,sans-Serif" font-size="14.00">gini = 0.087</text>
<text text-anchor="middle" x="333" y="-111.8" font-family="Helvetica,sans-Serif" font-size="14.00">samples = 22</text>
<text text-anchor="middle" x="333" y="-96.8" font-family="Helvetica,sans-Serif" font-size="14.00">value = [1, 21]</text>
</g>
<!-- 3&#45;&gt;7 -->
<g id="edge7" class="edge">
<title>3&#45;&gt;7</title>
<path fill="none" stroke="black" d="M326.92,-192.88C327.64,-184.78 328.41,-175.98 329.16,-167.47"/>
<polygon fill="black" stroke="black" points="332.67,-167.57 330.06,-157.3 325.7,-166.95 332.67,-167.57"/>
</g>
<!-- 5 -->
<g id="node6" class="node">
<title>5</title>
<polygon fill="none" stroke="black" points="130,-53 0,-53 0,0 130,0 130,-53"/>
<text text-anchor="middle" x="65" y="-37.8" font-family="Helvetica,sans-Serif" font-size="14.00">gini = 0.459</text>
<text text-anchor="middle" x="65" y="-22.8" font-family="Helvetica,sans-Serif" font-size="14.00">samples = 1191</text>
<text text-anchor="middle" x="65" y="-7.8" font-family="Helvetica,sans-Serif" font-size="14.00">value = [767, 424]</text>
</g>
<!-- 4&#45;&gt;5 -->
<g id="edge5" class="edge">
<title>4&#45;&gt;5</title>
<path fill="none" stroke="black" d="M150.83,-88.95C137.29,-79.25 122.51,-68.68 109.1,-59.07"/>
<polygon fill="black" stroke="black" points="111.12,-56.21 100.95,-53.24 107.04,-61.9 111.12,-56.21"/>
</g>
<!-- 6 -->
<g id="node7" class="node">
<title>6</title>
<polygon fill="none" stroke="black" points="253.5,-53 148.5,-53 148.5,0 253.5,0 253.5,-53"/>
<text text-anchor="middle" x="201" y="-37.8" font-family="Helvetica,sans-Serif" font-size="14.00">gini = 0.0</text>
<text text-anchor="middle" x="201" y="-22.8" font-family="Helvetica,sans-Serif" font-size="14.00">samples = 16</text>
<text text-anchor="middle" x="201" y="-7.8" font-family="Helvetica,sans-Serif" font-size="14.00">value = [0, 16]</text>
</g>
<!-- 4&#45;&gt;6 -->
<g id="edge6" class="edge">
<title>4&#45;&gt;6</title>
<path fill="none" stroke="black" d="M198.4,-88.95C198.75,-80.72 199.12,-71.85 199.48,-63.48"/>
<polygon fill="black" stroke="black" points="202.98,-63.38 199.91,-53.24 195.99,-63.08 202.98,-63.38"/>
</g>
<!-- 8 -->
<g id="node9" class="node">
<title>8</title>
<polygon fill="none" stroke="black" points="382.5,-53 277.5,-53 277.5,0 382.5,0 382.5,-53"/>
<text text-anchor="middle" x="330" y="-37.8" font-family="Helvetica,sans-Serif" font-size="14.00">gini = 0.0</text>
<text text-anchor="middle" x="330" y="-22.8" font-family="Helvetica,sans-Serif" font-size="14.00">samples = 21</text>
<text text-anchor="middle" x="330" y="-7.8" font-family="Helvetica,sans-Serif" font-size="14.00">value = [0, 21]</text>
</g>
<!-- 7&#45;&gt;8 -->
<g id="edge8" class="edge">
<title>7&#45;&gt;8</title>
<path fill="none" stroke="black" d="M331.95,-88.95C331.69,-80.72 331.41,-71.85 331.14,-63.48"/>
<polygon fill="black" stroke="black" points="334.63,-63.12 330.82,-53.24 327.64,-63.34 334.63,-63.12"/>
</g>
<!-- 9 -->
<g id="node10" class="node">
<title>9</title>
<polygon fill="none" stroke="black" points="497.5,-53 400.5,-53 400.5,0 497.5,0 497.5,-53"/>
<text text-anchor="middle" x="449" y="-37.8" font-family="Helvetica,sans-Serif" font-size="14.00">gini = 0.0</text>
<text text-anchor="middle" x="449" y="-22.8" font-family="Helvetica,sans-Serif" font-size="14.00">samples = 1</text>
<text text-anchor="middle" x="449" y="-7.8" font-family="Helvetica,sans-Serif" font-size="14.00">value = [1, 0]</text>
</g>
<!-- 7&#45;&gt;9 -->
<g id="edge9" class="edge">
<title>7&#45;&gt;9</title>
<path fill="none" stroke="black" d="M373.57,-88.95C385.25,-79.43 397.97,-69.07 409.58,-59.62"/>
<polygon fill="black" stroke="black" points="411.87,-62.27 417.41,-53.24 407.44,-56.84 411.87,-62.27"/>
</g>
<!-- 12 -->
<g id="node13" class="node">
<title>12</title>
<polygon fill="none" stroke="black" points="639,-261 531,-261 531,-193 639,-193 639,-261"/>
<text text-anchor="middle" x="585" y="-245.8" font-family="Helvetica,sans-Serif" font-size="14.00">进不去 &lt;= 0.5</text>
<text text-anchor="middle" x="585" y="-230.8" font-family="Helvetica,sans-Serif" font-size="14.00">gini = 0.082</text>
<text text-anchor="middle" x="585" y="-215.8" font-family="Helvetica,sans-Serif" font-size="14.00">samples = 70</text>
<text text-anchor="middle" x="585" y="-200.8" font-family="Helvetica,sans-Serif" font-size="14.00">value = [3, 67]</text>
</g>
<!-- 11&#45;&gt;12 -->
<g id="edge12" class="edge">
<title>11&#45;&gt;12</title>
<path fill="none" stroke="black" d="M624.17,-296.88C619.31,-288.33 614.01,-279.01 608.92,-270.07"/>
<polygon fill="black" stroke="black" points="611.92,-268.26 603.93,-261.3 605.84,-271.72 611.92,-268.26"/>
</g>
<!-- 17 -->
<g id="node18" class="node">
<title>17</title>
<polygon fill="none" stroke="black" points="754.5,-253.5 657.5,-253.5 657.5,-200.5 754.5,-200.5 754.5,-253.5"/>
<text text-anchor="middle" x="706" y="-238.3" font-family="Helvetica,sans-Serif" font-size="14.00">gini = 0.0</text>
<text text-anchor="middle" x="706" y="-223.3" font-family="Helvetica,sans-Serif" font-size="14.00">samples = 2</text>
<text text-anchor="middle" x="706" y="-208.3" font-family="Helvetica,sans-Serif" font-size="14.00">value = [2, 0]</text>
</g>
<!-- 11&#45;&gt;17 -->
<g id="edge17" class="edge">
<title>11&#45;&gt;17</title>
<path fill="none" stroke="black" d="M663.45,-296.88C670.32,-285.78 677.98,-273.37 684.89,-262.18"/>
<polygon fill="black" stroke="black" points="687.96,-263.87 690.24,-253.52 682,-260.19 687.96,-263.87"/>
</g>
<!-- 13 -->
<g id="node14" class="node">
<title>13</title>
<polygon fill="none" stroke="black" points="631.5,-157 526.5,-157 526.5,-89 631.5,-89 631.5,-157"/>
<text text-anchor="middle" x="579" y="-141.8" font-family="Helvetica,sans-Serif" font-size="14.00">导致 &lt;= 0.5</text>
<text text-anchor="middle" x="579" y="-126.8" font-family="Helvetica,sans-Serif" font-size="14.00">gini = 0.056</text>
<text text-anchor="middle" x="579" y="-111.8" font-family="Helvetica,sans-Serif" font-size="14.00">samples = 69</text>
<text text-anchor="middle" x="579" y="-96.8" font-family="Helvetica,sans-Serif" font-size="14.00">value = [2, 67]</text>
</g>
<!-- 12&#45;&gt;13 -->
<g id="edge13" class="edge">
<title>12&#45;&gt;13</title>
<path fill="none" stroke="black" d="M583.05,-192.88C582.58,-184.78 582.06,-175.98 581.56,-167.47"/>
<polygon fill="black" stroke="black" points="585.04,-167.08 580.96,-157.3 578.05,-167.49 585.04,-167.08"/>
</g>
<!-- 16 -->
<g id="node17" class="node">
<title>16</title>
<polygon fill="none" stroke="black" points="746.5,-149.5 649.5,-149.5 649.5,-96.5 746.5,-96.5 746.5,-149.5"/>
<text text-anchor="middle" x="698" y="-134.3" font-family="Helvetica,sans-Serif" font-size="14.00">gini = 0.0</text>
<text text-anchor="middle" x="698" y="-119.3" font-family="Helvetica,sans-Serif" font-size="14.00">samples = 1</text>
<text text-anchor="middle" x="698" y="-104.3" font-family="Helvetica,sans-Serif" font-size="14.00">value = [1, 0]</text>
</g>
<!-- 12&#45;&gt;16 -->
<g id="edge16" class="edge">
<title>12&#45;&gt;16</title>
<path fill="none" stroke="black" d="M621.69,-192.88C634.6,-181.23 649.1,-168.14 661.96,-156.53"/>
<polygon fill="black" stroke="black" points="664.65,-158.82 669.73,-149.52 659.96,-153.62 664.65,-158.82"/>
</g>
<!-- 14 -->
<g id="node15" class="node">
<title>14</title>
<polygon fill="none" stroke="black" points="631.5,-53 526.5,-53 526.5,0 631.5,0 631.5,-53"/>
<text text-anchor="middle" x="579" y="-37.8" font-family="Helvetica,sans-Serif" font-size="14.00">gini = 0.029</text>
<text text-anchor="middle" x="579" y="-22.8" font-family="Helvetica,sans-Serif" font-size="14.00">samples = 68</text>
<text text-anchor="middle" x="579" y="-7.8" font-family="Helvetica,sans-Serif" font-size="14.00">value = [1, 67]</text>
</g>
<!-- 13&#45;&gt;14 -->
<g id="edge14" class="edge">
<title>13&#45;&gt;14</title>
<path fill="none" stroke="black" d="M579,-88.95C579,-80.72 579,-71.85 579,-63.48"/>
<polygon fill="black" stroke="black" points="582.5,-63.24 579,-53.24 575.5,-63.24 582.5,-63.24"/>
</g>
<!-- 15 -->
<g id="node16" class="node">
<title>15</title>
<polygon fill="none" stroke="black" points="746.5,-53 649.5,-53 649.5,0 746.5,0 746.5,-53"/>
<text text-anchor="middle" x="698" y="-37.8" font-family="Helvetica,sans-Serif" font-size="14.00">gini = 0.0</text>
<text text-anchor="middle" x="698" y="-22.8" font-family="Helvetica,sans-Serif" font-size="14.00">samples = 1</text>
<text text-anchor="middle" x="698" y="-7.8" font-family="Helvetica,sans-Serif" font-size="14.00">value = [1, 0]</text>
</g>
<!-- 13&#45;&gt;15 -->
<g id="edge15" class="edge">
<title>13&#45;&gt;15</title>
<path fill="none" stroke="black" d="M620.62,-88.95C632.6,-79.43 645.65,-69.07 657.56,-59.62"/>
<polygon fill="black" stroke="black" points="659.94,-62.2 665.59,-53.24 655.58,-56.71 659.94,-62.2"/>
</g>
<!-- 19 -->
<g id="node20" class="node">
<title>19</title>
<polygon fill="none" stroke="black" points="895,-365 773,-365 773,-297 895,-297 895,-365"/>
<text text-anchor="middle" x="834" y="-349.8" font-family="Helvetica,sans-Serif" font-size="14.00">千万别 &lt;= 0.5</text>
<text text-anchor="middle" x="834" y="-334.8" font-family="Helvetica,sans-Serif" font-size="14.00">gini = 0.114</text>
<text text-anchor="middle" x="834" y="-319.8" font-family="Helvetica,sans-Serif" font-size="14.00">samples = 215</text>
<text text-anchor="middle" x="834" y="-304.8" font-family="Helvetica,sans-Serif" font-size="14.00">value = [13, 202]</text>
</g>
<!-- 18&#45;&gt;19 -->
<g id="edge19" class="edge">
<title>18&#45;&gt;19</title>
<path fill="none" stroke="black" d="M834,-400.88C834,-392.78 834,-383.98 834,-375.47"/>
<polygon fill="black" stroke="black" points="837.5,-375.3 834,-365.3 830.5,-375.3 837.5,-375.3"/>
</g>
<!-- 26 -->
<g id="node27" class="node">
<title>26</title>
<polygon fill="none" stroke="black" points="1010.5,-357.5 913.5,-357.5 913.5,-304.5 1010.5,-304.5 1010.5,-357.5"/>
<text text-anchor="middle" x="962" y="-342.3" font-family="Helvetica,sans-Serif" font-size="14.00">gini = 0.0</text>
<text text-anchor="middle" x="962" y="-327.3" font-family="Helvetica,sans-Serif" font-size="14.00">samples = 4</text>
<text text-anchor="middle" x="962" y="-312.3" font-family="Helvetica,sans-Serif" font-size="14.00">value = [4, 0]</text>
</g>
<!-- 18&#45;&gt;26 -->
<g id="edge26" class="edge">
<title>18&#45;&gt;26</title>
<path fill="none" stroke="black" d="M875.56,-400.88C890.46,-389.01 907.23,-375.65 922,-363.88"/>
<polygon fill="black" stroke="black" points="924.34,-366.49 929.97,-357.52 919.97,-361.01 924.34,-366.49"/>
</g>
<!-- 20 -->
<g id="node21" class="node">
<title>20</title>
<polygon fill="none" stroke="black" points="895,-261 773,-261 773,-193 895,-193 895,-261"/>
<text text-anchor="middle" x="834" y="-245.8" font-family="Helvetica,sans-Serif" font-size="14.00">封顶 &lt;= 0.5</text>
<text text-anchor="middle" x="834" y="-230.8" font-family="Helvetica,sans-Serif" font-size="14.00">gini = 0.106</text>
<text text-anchor="middle" x="834" y="-215.8" font-family="Helvetica,sans-Serif" font-size="14.00">samples = 214</text>
<text text-anchor="middle" x="834" y="-200.8" font-family="Helvetica,sans-Serif" font-size="14.00">value = [12, 202]</text>
</g>
<!-- 19&#45;&gt;20 -->
<g id="edge20" class="edge">
<title>19&#45;&gt;20</title>
<path fill="none" stroke="black" d="M834,-296.88C834,-288.78 834,-279.98 834,-271.47"/>
<polygon fill="black" stroke="black" points="837.5,-271.3 834,-261.3 830.5,-271.3 837.5,-271.3"/>
</g>
<!-- 25 -->
<g id="node26" class="node">
<title>25</title>
<polygon fill="none" stroke="black" points="1010.5,-253.5 913.5,-253.5 913.5,-200.5 1010.5,-200.5 1010.5,-253.5"/>
<text text-anchor="middle" x="962" y="-238.3" font-family="Helvetica,sans-Serif" font-size="14.00">gini = 0.0</text>
<text text-anchor="middle" x="962" y="-223.3" font-family="Helvetica,sans-Serif" font-size="14.00">samples = 1</text>
<text text-anchor="middle" x="962" y="-208.3" font-family="Helvetica,sans-Serif" font-size="14.00">value = [1, 0]</text>
</g>
<!-- 19&#45;&gt;25 -->
<g id="edge25" class="edge">
<title>19&#45;&gt;25</title>
<path fill="none" stroke="black" d="M875.56,-296.88C890.46,-285.01 907.23,-271.65 922,-259.88"/>
<polygon fill="black" stroke="black" points="924.34,-262.49 929.97,-253.52 919.97,-257.01 924.34,-262.49"/>
</g>
<!-- 21 -->
<g id="node22" class="node">
<title>21</title>
<polygon fill="none" stroke="black" points="891,-157 769,-157 769,-89 891,-89 891,-157"/>
<text text-anchor="middle" x="830" y="-141.8" font-family="Helvetica,sans-Serif" font-size="14.00">太薄 &lt;= 0.5</text>
<text text-anchor="middle" x="830" y="-126.8" font-family="Helvetica,sans-Serif" font-size="14.00">gini = 0.098</text>
<text text-anchor="middle" x="830" y="-111.8" font-family="Helvetica,sans-Serif" font-size="14.00">samples = 213</text>
<text text-anchor="middle" x="830" y="-96.8" font-family="Helvetica,sans-Serif" font-size="14.00">value = [11, 202]</text>
</g>
<!-- 20&#45;&gt;21 -->
<g id="edge21" class="edge">
<title>20&#45;&gt;21</title>
<path fill="none" stroke="black" d="M832.7,-192.88C832.38,-184.78 832.04,-175.98 831.7,-167.47"/>
<polygon fill="black" stroke="black" points="835.2,-167.15 831.31,-157.3 828.2,-167.43 835.2,-167.15"/>
</g>
<!-- 24 -->
<g id="node25" class="node">
<title>24</title>
<polygon fill="none" stroke="black" points="1006.5,-149.5 909.5,-149.5 909.5,-96.5 1006.5,-96.5 1006.5,-149.5"/>
<text text-anchor="middle" x="958" y="-134.3" font-family="Helvetica,sans-Serif" font-size="14.00">gini = 0.0</text>
<text text-anchor="middle" x="958" y="-119.3" font-family="Helvetica,sans-Serif" font-size="14.00">samples = 1</text>
<text text-anchor="middle" x="958" y="-104.3" font-family="Helvetica,sans-Serif" font-size="14.00">value = [1, 0]</text>
</g>
<!-- 20&#45;&gt;24 -->
<g id="edge24" class="edge">
<title>20&#45;&gt;24</title>
<path fill="none" stroke="black" d="M874.26,-192.88C888.7,-181.01 904.94,-167.65 919.25,-155.88"/>
<polygon fill="black" stroke="black" points="921.48,-158.58 926.98,-149.52 917.03,-153.17 921.48,-158.58"/>
</g>
<!-- 22 -->
<g id="node23" class="node">
<title>22</title>
<polygon fill="none" stroke="black" points="888,-53 766,-53 766,0 888,0 888,-53"/>
<text text-anchor="middle" x="827" y="-37.8" font-family="Helvetica,sans-Serif" font-size="14.00">gini = 0.09</text>
<text text-anchor="middle" x="827" y="-22.8" font-family="Helvetica,sans-Serif" font-size="14.00">samples = 212</text>
<text text-anchor="middle" x="827" y="-7.8" font-family="Helvetica,sans-Serif" font-size="14.00">value = [10, 202]</text>
</g>
<!-- 21&#45;&gt;22 -->
<g id="edge22" class="edge">
<title>21&#45;&gt;22</title>
<path fill="none" stroke="black" d="M828.95,-88.95C828.69,-80.72 828.41,-71.85 828.14,-63.48"/>
<polygon fill="black" stroke="black" points="831.63,-63.12 827.82,-53.24 824.64,-63.34 831.63,-63.12"/>
</g>
<!-- 23 -->
<g id="node24" class="node">
<title>23</title>
<polygon fill="none" stroke="black" points="1003.5,-53 906.5,-53 906.5,0 1003.5,0 1003.5,-53"/>
<text text-anchor="middle" x="955" y="-37.8" font-family="Helvetica,sans-Serif" font-size="14.00">gini = 0.0</text>
<text text-anchor="middle" x="955" y="-22.8" font-family="Helvetica,sans-Serif" font-size="14.00">samples = 1</text>
<text text-anchor="middle" x="955" y="-7.8" font-family="Helvetica,sans-Serif" font-size="14.00">value = [1, 0]</text>
</g>
<!-- 21&#45;&gt;23 -->
<g id="edge23" class="edge">
<title>21&#45;&gt;23</title>
<path fill="none" stroke="black" d="M873.72,-88.95C886.42,-79.34 900.27,-68.87 912.88,-59.34"/>
<polygon fill="black" stroke="black" points="915.09,-62.06 920.96,-53.24 910.87,-56.48 915.09,-62.06"/>
</g>
</g>
</svg>
